<?xml version="1.0" encoding="iso-8859-1"?>
<!-- Generator: Adobe Illustrator 19.0.0, SVG Export Plug-In . SVG Version: 6.00 Build 0)  -->
<svg version="1.1" id="Capa_1" xmlns="http://www.w3.org/2000/svg" xmlns:xlink="http://www.w3.org/1999/xlink" x="0px" y="0px"
	 viewBox="0 0 512 512" style="enable-background:new 0 0 512 512;" xml:space="preserve">
<path style="fill:#FFC89F;" d="M494.24,390.225c-9.78-9.78-25.15-11.18-36.536-3.328l-60.175,45.734
	c8.594-7.988,9.238-25.116-0.419-34.773l0,0c-3.751-3.751-8.838-5.858-14.142-5.858H284.91c-7.957,0-15.587-3.161-21.213-8.787
	l-53.184-53.433c-9.377-9.377-22.095-14.645-35.355-14.645H88.042v142.198l41.456,25.108C150.623,495.235,174.849,502,199.548,502
	h162.858c26.167,0,51.542-8.987,71.876-25.457l57.852-47.157C504.341,419.556,505.323,401.308,494.24,390.225z"/>
<path style="fill:#649BD1;" d="M77.292,479.75h-56.5c-5.937,0-10.75-4.813-10.75-10.75V310.5c0-5.937,4.813-10.75,10.75-10.75h56.5
	c5.937,0,10.75,4.813,10.75,10.75V469C88.042,474.937,83.229,479.75,77.292,479.75z"/>
<path style="fill:#A0E070;" d="M384.042,193.068c-43.619,0-78.979,35.36-78.979,78.979s35.36,78.979,78.979,78.979
	s78.979-35.36,78.979-78.979S427.661,193.068,384.042,193.068z"/>
<g>
	<path style="fill:#FFFFFF;" d="M384.042,226.415c-25.202,0-45.632,20.43-45.632,45.632s20.43,45.632,45.632,45.632
		s45.632-20.43,45.632-45.632C429.674,246.845,409.243,226.415,384.042,226.415z"/>
	<path style="fill:#FFFFFF;" d="M384.042,193.068v78.979h78.979C463.021,228.428,427.661,193.068,384.042,193.068z"/>
	<path style="fill:#FFFFFF;" d="M384.042,351.026v-78.979h-78.979C305.063,315.666,340.422,351.026,384.042,351.026z"/>
</g>
<path style="fill:#F75857;" d="M216.242,10c-43.619,0-78.979,35.36-78.979,78.979s35.36,78.979,78.979,78.979
	s78.979-35.36,78.979-78.979S259.861,10,216.242,10z"/>
<g>
	<path style="fill:#FFFFFF;" d="M216.242,43.347c-25.202,0-45.632,20.43-45.632,45.632s20.43,45.632,45.632,45.632
		s45.632-20.43,45.632-45.632S241.443,43.347,216.242,43.347z"/>
	<path style="fill:#FFFFFF;" d="M216.242,10v78.979h78.979C295.221,45.36,259.861,10,216.242,10z"/>
	<path style="fill:#FFFFFF;" d="M216.242,167.958V88.979h-78.979C137.263,132.598,172.622,167.958,216.242,167.958z"/>
</g>
<path d="M56.116,331.176c-3.883-3.93-10.213-3.966-14.143-0.086c-3.929,3.881-3.967,10.213-0.086,14.142l0.08,0.081
	c1.957,1.98,4.535,2.972,7.114,2.972c2.539,0,5.079-0.961,7.028-2.886c3.929-3.881,3.967-10.213,0.086-14.142L56.116,331.176z"/>
<path d="M197.274,400.321l-0.116-0.076c-4.626-3.015-10.822-1.705-13.837,2.922c-3.014,4.628-1.705,10.823,2.923,13.837l0.116,0.076
	c1.685,1.098,3.576,1.622,5.447,1.622c3.269,0,6.473-1.601,8.39-4.543C203.211,409.53,201.902,403.335,197.274,400.321z"/>
<path d="M501.311,383.154c-13.195-13.194-33.923-15.082-49.284-4.489c-0.127,0.087-0.252,0.178-0.374,0.271l-38.326,29.129
	c-1.384-6.519-4.482-12.614-9.146-17.277c-5.666-5.667-13.199-8.788-21.214-8.788H284.91c-5.342,0-10.364-2.081-14.125-5.842
	l-53.2-53.449c-11.333-11.333-26.4-17.574-42.427-17.574H97.313c-2.374-8.845-10.438-15.385-20.021-15.385h-56.5
	c-11.441,0-20.75,9.309-20.75,20.75V469c0,11.441,9.309,20.75,20.75,20.75h56.5c9.498,0,17.507-6.423,19.96-15.147l27.065,16.392
	C147.007,504.736,173.021,512,199.548,512h162.857c28.366,0,56.127-9.833,78.195-27.707l57.806-47.119
	c8.026-6.464,12.947-16.073,13.5-26.363C512.46,400.521,508.597,390.44,501.311,383.154z M78.042,469c0,0.414-0.337,0.75-0.75,0.75
	h-56.5c-0.413,0-0.75-0.336-0.75-0.75V310.5c0-0.414,0.337-0.75,0.75-0.75h56.5c0.413,0,0.75,0.336,0.75,0.75V469z M491.935,409.737
	c-0.253,4.697-2.41,8.909-6.12,11.897l-57.827,47.137C409.494,483.75,386.203,492,362.405,492H199.548
	c-22.873,0-45.305-6.263-64.869-18.113l-36.637-22.189V325.135h77.116c10.685,0,20.729,4.161,28.268,11.699l53.2,53.449
	c7.555,7.555,17.6,11.716,28.284,11.716h98.058c2.671,0,5.182,1.04,7.07,2.929c4.585,4.585,4.956,12.137,2.977,16.916
	c-0.587,1.417-1.277,2.43-1.992,3.171l-0.567,0.431c-0.272,0.207-0.53,0.425-0.775,0.653c-1.42,0.853-2.749,0.858-3.374,0.858
	H248.792c-6.91,0-13.624-1.991-19.417-5.759l-6.467-4.206c-4.63-3.012-10.824-1.699-13.835,2.931
	c-3.012,4.629-1.699,10.824,2.931,13.835l6.467,4.206c9.045,5.883,19.53,8.993,30.321,8.993h137.515
	c6.751,0,12.833-2.369,17.604-6.617l59.642-45.328c7.396-4.982,17.296-4.038,23.616,2.284
	C490.495,400.622,492.187,405.041,491.935,409.737z"/>
<path d="M384.042,361.026c49.063,0,88.979-39.916,88.979-88.979s-39.916-88.979-88.979-88.979s-88.979,39.916-88.979,88.979
	C295.062,321.11,334.978,361.026,384.042,361.026z M315.796,282.047h13.489c1.749,3.952,5.944,6.459,10.432,5.878
	c5.477-0.712,9.34-5.729,8.628-11.206c-1.454-11.184,2.278-22.166,10.241-30.128c6.439-6.44,14.732-9.917,23.178-10.447
	c0.733,0.171,3.823,0.171,4.555,0c8.445,0.531,16.739,4.007,23.179,10.446c14.036,14.037,14.036,36.876,0,50.912
	c-8.159,8.16-19.399,11.858-30.83,10.144c-5.442-0.815-10.552,2.944-11.372,8.407c-0.732,4.886,2.208,9.467,6.746,10.966v13.273
	C343.996,335.909,320.179,312.093,315.796,282.047z M394.042,340.293v-13.186c11.084-2.027,21.483-7.347,29.599-15.462
	c8.368-8.368,13.516-18.749,15.47-29.598h13.177C447.904,312.093,424.087,335.909,394.042,340.293z M452.287,262.047H439.11
	c-1.954-10.849-7.102-21.23-15.47-29.599c-8.369-8.367-18.75-13.516-29.599-15.469v-13.178
	C424.087,208.185,447.904,232.002,452.287,262.047z M374.042,203.802v13.177c-10.849,1.954-21.23,7.102-29.599,15.47
	c-8.224,8.224-13.526,18.521-15.514,29.598h-13.133C320.179,232.002,343.996,208.185,374.042,203.802z"/>
<path d="M358.494,297.411c-3.906-3.905-10.236-3.905-14.143,0c-3.905,3.905-3.905,10.237,0,14.143l0.093,0.093
	c1.953,1.953,4.512,2.929,7.071,2.929s5.118-0.976,7.071-2.929c3.905-3.905,3.905-10.237,0-14.143L358.494,297.411z"/>
<path d="M216.021,177.958c49.063,0,88.979-39.916,88.979-88.979S265.085,0,216.021,0s-88.979,39.916-88.979,88.979
	S166.958,177.958,216.021,177.958z M147.776,98.979h13.487c1.744,3.953,5.929,6.461,10.434,5.878
	c5.477-0.712,9.34-5.729,8.628-11.206c-1.454-11.184,2.278-22.166,10.241-30.128c6.247-6.246,14.385-9.906,23.123-10.461
	c0.75,0.18,3.917,0.18,4.667,0c8.737,0.556,16.876,4.215,23.122,10.461c6.8,6.799,10.545,15.84,10.545,25.456
	s-3.745,18.656-10.545,25.456c-8.16,8.16-19.396,11.856-30.829,10.144c-5.464-0.814-10.553,2.946-11.372,8.407
	c-0.732,4.886,2.208,9.467,6.746,10.966v13.273C175.976,152.841,152.159,129.024,147.776,98.979z M226.021,157.224v-13.185
	c11.084-2.028,21.482-7.347,29.598-15.462c8.18-8.18,13.502-18.448,15.501-29.598h13.146
	C279.884,129.024,256.067,152.841,226.021,157.224z M284.267,78.979H271.12c-2-11.151-7.322-21.418-15.501-29.598
	c-8.18-8.179-18.447-13.502-29.598-15.501V20.734C256.067,25.117,279.884,48.934,284.267,78.979z M206.021,20.734V33.88
	c-11.15,2-21.418,7.322-29.599,15.501c-8.224,8.224-13.526,18.521-15.514,29.598h-13.133
	C152.159,48.934,175.976,25.117,206.021,20.734z"/>
<path d="M190.473,114.342c-3.906-3.905-10.236-3.905-14.143,0c-3.905,3.905-3.905,10.237,0,14.143l0.093,0.093
	c1.953,1.953,4.512,2.929,7.071,2.929s5.118-0.976,7.071-2.929c3.905-3.905,3.905-10.237,0-14.143L190.473,114.342z"/>
<g>
</g>
<g>
</g>
<g>
</g>
<g>
</g>
<g>
</g>
<g>
</g>
<g>
</g>
<g>
</g>
<g>
</g>
<g>
</g>
<g>
</g>
<g>
</g>
<g>
</g>
<g>
</g>
<g>
</g>
</svg>
